<?xml version="1.0" encoding="UTF-8" standalone="no"?>
<!-- Created with Inkscape (http://www.inkscape.org/) -->

<svg
   xmlns:dc="http://purl.org/dc/elements/1.1/"
   xmlns:cc="http://creativecommons.org/ns#"
   xmlns:rdf="http://www.w3.org/1999/02/22-rdf-syntax-ns#"
   xmlns:svg="http://www.w3.org/2000/svg"
   xmlns="http://www.w3.org/2000/svg"
   xmlns:sodipodi="http://sodipodi.sourceforge.net/DTD/sodipodi-0.dtd"
   xmlns:inkscape="http://www.inkscape.org/namespaces/inkscape"
   id="svg3039"
   version="1.1"
   inkscape:version="0.48.1 r9760"
   width="1000"
   height="199"
   sodipodi:docname="logo.svg"
   inkscape:export-filename="/Users/nickmalcolm/workspace/setsale/public/images/logo.png"
   inkscape:export-xdpi="90"
   inkscape:export-ydpi="90">
  <metadata
     id="metadata3045">
    <rdf:RDF>
      <cc:Work
         rdf:about="">
        <dc:format>image/svg+xml</dc:format>
        <dc:type
           rdf:resource="http://purl.org/dc/dcmitype/StillImage" />
        <dc:title />
      </cc:Work>
    </rdf:RDF>
  </metadata>
  <defs
     id="defs3043">
    <filter
       id="filter3159"
       inkscape:label="Inner Shadow"
       inkscape:menu="Shadows and Glows"
       inkscape:menu-tooltip="Adds a colorizable drop shadow inside"
       color-interpolation-filters="sRGB">
      <feGaussianBlur
         id="feGaussianBlur3161"
         stdDeviation="3"
         result="result8" />
      <feOffset
         id="feOffset3163"
         dx="3"
         dy="3"
         result="result11" />
      <feComposite
         id="feComposite3165"
         in2="result11"
         result="result6"
         in="SourceGraphic"
         operator="in" />
      <feFlood
         id="feFlood3167"
         result="result10"
         in="result6"
         flood-opacity="1"
         flood-color="rgb(0,0,0)" />
      <feBlend
         id="feBlend3169"
         in2="result10"
         mode="normal"
         in="result6"
         result="result12" />
      <feComposite
         id="feComposite3171"
         in2="SourceGraphic"
         result="result2"
         operator="in" />
    </filter>
    <filter
       color-interpolation-filters="sRGB"
       inkscape:menu-tooltip="Adds a colorizable drop shadow inside"
       inkscape:menu="Shadows and Glows"
       inkscape:label="Inner Shadow"
       id="filter3159-2">
      <feGaussianBlur
         result="result8"
         stdDeviation="15"
         id="feGaussianBlur3161-6" />
      <feOffset
         result="result11"
         dy="15"
         dx="15"
         id="feOffset3163-9" />
      <feComposite
         operator="in"
         in="SourceGraphic"
         result="result6"
         in2="result11"
         id="feComposite3165-4" />
      <feFlood
         flood-color="rgb(0,0,0)"
         flood-opacity="1"
         in="result6"
         result="result10"
         id="feFlood3167-1" />
      <feBlend
         result="result12"
         in="result6"
         mode="normal"
         in2="result10"
         id="feBlend3169-3" />
      <feComposite
         operator="in"
         result="result2"
         in2="SourceGraphic"
         id="feComposite3171-7" />
    </filter>
  </defs>
  <sodipodi:namedview
     pagecolor="#A8CB17"
     bordercolor="#666666"
     borderopacity="1"
     objecttolerance="10"
     gridtolerance="10"
     guidetolerance="10"
     inkscape:pageopacity="0"
     inkscape:pageshadow="2"
     inkscape:window-width="1067"
     inkscape:window-height="680"
     id="namedview3041"
     showgrid="false"
     inkscape:zoom="1"
     inkscape:cx="657.57887"
     inkscape:cy="109.31192"
     inkscape:window-x="166"
     inkscape:window-y="76"
     inkscape:window-maximized="0"
     inkscape:current-layer="svg3039" />
  <path
     id="path3125"
     style="fill:#fefefa;filter:url(#filter3159);fill-opacity:1"
     d="m 67.294102,46.309424 c 1.31995,-0.01079 2.741873,-0.0023 4.3125,0 13.89875,0.02026 16.1017,0.269384 21.375001,2.375 7.436957,2.969561 13.248007,8.143073 14.749997,13.15625 0.89064,2.972711 0.86847,5.598411 -0.125,11.406251 l -1.28125,7.53125 -3.25,-2.03125 c -13.044588,-8.062 -40.102258,-9.35244 -48.468748,-2.3125 -2.490635,2.09573 -3,3.25086 -3,6.9375 0,3.87692 0.378993,4.66155 3.09375,6.3125 1.704508,1.03657 8.117008,3.34653 14.25,5.124995 17.69255,5.13054 24.921701,9.71577 29.249998,18.5625 2.44727,5.00203 2.64235,6.21541 2.15625,13.6875 -0.76258,11.72199 -3.7256,18.88217 -10.656248,25.71875 -6.44786,6.36034 -13.243561,10.28877 -21.65625,12.5 -8.375245,2.20139 -25.406722,2.76623 -33.96875,1.125 -13.196658,-2.52962 -22.582033,-9.4796 -23.96875,-17.6875 -0.511097,-3.02516 1.020235,-15.45626 2.0625,-16.75 0.143965,-0.1787 2.007171,0.8278 4.15625,2.25 11.938297,7.90039 36.595115,10.19196 45.46875,4.21875 6.696097,-4.50742 7.411014,-12.07955 1.46875,-15.71875 -1.735014,-1.06256 -8.78125,-3.80648 -15.65625,-6.0625 -14.416243,-4.73066 -16.665612,-5.75917 -21.53125,-10.03125 -6.506495,-5.71278 -8.968422,-13.927475 -7.3125,-24.312495 2.633607,-16.51651 13.140179,-27.789462 31.84375,-34.156251 3.901236,-1.328 7.447849,-1.768236 16.6875,-1.84375 z m 646.658718,2.692389 c -9.67696,0.21508 -19.4849,2.56515 -28.28125,7.1875 -21.69774,11.401838 -36.71814,36.770216 -38.3125,64.749997 -1.49716,26.27399 11.42867,45.63419 35.15625,52.6875 4.8928,1.45443 8.76801,1.7258 21,1.4375 16.79281,-0.3958 23.76168,-2.03534 32.375,-7.5625 7.71922,-4.9534 11.78838,-12.75169 13.6875,-26.3125 0.78397,-5.59799 -0.20678,-5.99372 -6.6875,-2.6875 -11.05601,5.64035 -32.91677,7.80116 -43.71875,4.3125 -5.33416,-1.72274 -10.78909,-6.23158 -12.28125,-10.15625 -1.94492,-5.11553 -1.72449,-5.21875 11.03125,-5.21875 6.54172,0 16.55422,-0.45927 22.25,-1.03125 23.76228,-2.38625 35.70533,-7.94473 41.59375,-19.34375 2.2192,-4.29601 2.71324,-6.75553 3.0625,-15.281247 0.55586,-13.568991 -1.05125,-18.386392 -8.875,-26.75 -10.12244,-10.820929 -25.87173,-16.389717 -42,-16.03125 z m -1.40625,28.5625 c 0.77258,0.0093 1.55586,0.01508 2.375,0.0625 6.60718,0.382484 8.53311,0.926134 11.375,3.09375 4.92347,3.755316 6.27142,7.555151 4.5625,12.84375 -2.01358,6.231417 -4.8732,7.839317 -15.90625,8.906247 -11.12594,1.07591 -27.33325,1.26051 -28.28125,0.3125 -1.31765,-1.31764 -0.61067,-4.48931 2.25,-10.156247 5.54198,-10.978622 12.03625,-15.202594 23.625,-15.0625 z M 182.41729,44.173386 c -9.67696,0.21508 -19.4849,2.56515 -28.28125,7.1875 -21.69774,11.401838 -36.71814,36.770216 -38.3125,64.749994 -1.49716,26.27399 11.42867,45.63419 35.15625,52.6875 4.8928,1.45443 8.76801,1.7258 21,1.4375 16.79281,-0.3958 23.76168,-2.03534 32.375,-7.5625 7.71922,-4.9534 11.78838,-12.75169 13.6875,-26.3125 0.78397,-5.59799 -0.20678,-5.99372 -6.6875,-2.6875 -11.05601,5.64035 -32.91677,7.80116 -43.71875,4.3125 -5.33416,-1.72274 -10.78909,-6.23158 -12.28125,-10.15625 -1.94492,-5.11553 -1.72449,-5.21875 11.03125,-5.21875 6.54172,0 16.55422,-0.45927 22.25,-1.03125 23.76228,-2.38625 35.70533,-7.94473 41.59375,-19.34374 2.2192,-4.29601 2.71324,-6.75554 3.0625,-15.281254 0.55586,-13.568991 -1.05125,-18.386392 -8.875,-26.75 -10.12244,-10.820929 -25.87173,-16.389717 -42,-16.03125 z m -1.40625,28.5625 c 0.77258,0.0093 1.55586,0.01508 2.375,0.0625 6.60718,0.382484 8.53311,0.926134 11.375,3.09375 4.92347,3.755316 6.27142,7.555151 4.5625,12.84375 -2.01358,6.231424 -4.8732,7.839324 -15.90625,8.906254 -11.12594,1.07591 -27.33325,1.26051 -28.28125,0.3125 -1.31765,-1.31764 -0.61067,-4.489314 2.25,-10.156254 5.54198,-10.978622 12.03625,-15.202594 23.625,-15.0625 z M 506.45282,48.564313 c -4.09823,0.02747 -8.36399,0.427093 -12.71875,1.1875 -15.55399,2.71596 -28.05007,10.518851 -33.21875,20.71875 -2.40922,4.754375 -5.39108,20.421416 -4.125,21.6875 0.39471,0.394714 1.69376,0.08607 2.90625,-0.6875 14.83262,-9.463233 21.92826,-11.470861 38.5,-10.84375 15.68212,0.593445 20.08717,3.520615 18.75,12.4375 l -0.65625,4.374997 -10.6875,0 c -33.86628,0.0127 -56.48182,10.96001 -62.3125,30.15625 -2.74584,9.04009 -2.34458,21.16389 0.90625,27.875 4.38572,9.05398 14.9606,16.64561 26.3125,18.875 2.41542,0.47436 9.87338,0.90845 16.5625,0.96875 28.27834,0.25476 43.97918,-7.2351 52.8125,-25.1875 3.99532,-8.1199 6.19946,-15.20808 10.71875,-34.6875 3.5665,-15.3726 4.39289,-32.26759 1.9375,-39.499997 -5.86841,-17.285483 -23.55708,-27.523331 -45.6875,-27.375 z m -1.3125,71.874997 7.875,0 0,3.09375 c 0,4.72908 -2.90916,14.96926 -5.15625,18.125 -3.76025,5.28079 -13.2892,8.43127 -20.84375,6.875 -7.62929,-1.57167 -10,-4.26629 -10,-11.375 0,-4.80542 2.64913,-9.68589 7,-12.875 3.25155,-2.38333 11.29699,-3.84375 21.125,-3.84375 z M 391.6875,48.560029 c -18.02207,0.144744 -34.15991,6.205262 -44.125,16.96875 -6.70719,7.244566 -9.58101,14.410454 -10.3125,25.65625 -0.63795,9.807831 1.06421,15.382791 6.5625,21.468751 4.46402,4.94114 9.41792,7.43417 25.5625,12.78125 16.31457,5.40338 19.12738,7.98233 15,13.875 -2.66962,3.81142 -7.36225,5.125 -18.375,5.125 -11.75093,0 -19.28531,-2.10021 -27.75,-7.71875 -3.04793,-2.0231 -5.74646,-3.16081 -6.21875,-2.65625 -2.84666,3.04106 -3.97608,21.67434 -1.59375,26.28125 3.26773,6.3191 11.2189,11.35847 21.5625,13.6875 7.55204,1.70048 28.03655,1.68321 36.125,-0.0312 18.78945,-3.98269 32.67789,-17.30676 35.875,-34.4375 2.44981,-13.12656 0.31035,-21.9951 -7,-29.09375 -5.42251,-5.26547 -12.52876,-8.73544 -26.71875,-13 -5.64632,-1.69691 -11.44969,-4.130866 -12.96875,-5.437501 -2.45077,-2.108066 -2.60643,-2.646315 -1.5625,-4.9375 4.37183,-9.595116 32.03272,-9.569827 47.46875,0.03125 5.7575,3.581116 6.43446,3.179769 7.8125,-4.53125 1.72883,-9.674008 0.98432,-17.89003 -2.03125,-21.9688 -3.67959,-4.97692 -14.09403,-9.697063 -24.59375,-11.1875 -4.30781,-0.611494 -8.55981,-0.908402 -12.71875,-0.875 z m -91.375,-25.125 c -0.89545,0.02993 -2.09805,0.122414 -3.6875,0.25 -12.5753,1.009424 -29.47202,12.603341 -35.09375,24.09375 -1.70674,3.488435 -5.31543,18.206695 -11.09375,45.15625 -8.18293,38.164441 -8.56718,40.479111 -8.25,50.500001 0.29401,9.28919 0.65388,11.04724 3.0625,15.15625 4.53093,7.72959 12.15559,12.83212 22.03125,14.78125 6.15726,1.21522 12.54256,1.20868 19.25,-0.0312 12.93457,-2.39109 18.30941,-7.64481 21.4375,-20.96875 1.12293,-4.78314 2.03125,-9.70571 2.03125,-10.93755 0,-1.98936 -0.36329,-2.15303 -3.25,-1.59375 -7.79874,1.51095 -17.80753,1.80498 -20.65625,0.625 -5.78264,-2.39524 -5.87537,-4.8687 -1.15625,-27.34375 2.33051,-11.09917 4.66421,-21.875001 5.1875,-23.937501 l 0.9375,-3.75 9.28125,0 c 7.93358,0 10.01207,-0.372786 14.40625,-2.5625 7.97627,-3.974741 11.7614,-8.868751 13.65625,-17.59375 0.87749,-4.04049 1.70944,-8.46875 1.84375,-9.84375 l 0.25,-2.5 -16.25,-0.28125 C 305.3125,52.502654 298,52.214904 298,51.997529 c 0,-0.217374 1.125,-5.60909 2.5,-11.96875 1.375,-6.35966 2.5,-12.759108 2.5,-14.21875 0,-1.985803 -10e-4,-2.464791 -2.6875,-2.375 z m 294.90625,-12.21875 -1.15625,5.375 C 566.3244,144.77654 565.93859,147.15307 570.84375,157.93503 c 3.78394,8.31741 8.73138,12.34708 18.25,14.90625 9.64049,2.59193 21.12073,1.59974 29.71875,-2.5625 7.59703,-3.67766 11.09856,-10.52362 12.875,-25.09375 l 0.59375,-4.75 -6.90625,0 c -8.22434,-0.002 -13.40473,-2.19095 -14.8125,-6.25 -0.75477,-2.17621 1.17423,-12.82332 9.25,-51.000001 6.08915,-28.785325 10.2086,-50.468743 10.1875,-53.75 -0.0202,-3.146152 -0.84732,-7.230995 -1.90625,-9.5625 -2.79099,-6.145111 -6.98135,-7.777573 -21.25,-8.25 l -11.625,-0.40625 z"
     inkscape:connector-curvature="0" />
  <g
     inkscape:groupmode="layer"
     id="layer1"
     inkscape:label="Layer" />
  <g
     id="g3107"
     transform="matrix(0.43124131,-0.01485889,0.01485889,0.43124131,761.90075,1.5114746)"
     inkscape:export-filename="/Users/nickmalcolm/workspace/setsale/public/images/logo.png"
     inkscape:export-xdpi="90"
     inkscape:export-ydpi="90">
    <g
       transform="translate(0,-552.36218)"
       id="layer1-8"
       inkscape:label="Layer 1" />
    <g
       inkscape:label="Layer#1"
       id="layer3" />
    <g
       inkscape:label="Layer"
       id="layer2">
      <path
         transform="matrix(0.84574069,0.06748587,-0.06748587,0.84574069,50.134441,21.633855)"
         sodipodi:nodetypes="cccc"
         inkscape:connector-curvature="0"
         id="path2996"
         d="M 10.250965,8.6364935 C 147.38846,269.36034 102.71506,403.4376 8.6364935,491.3635 269.75839,368.75026 388.30462,418.72859 488.13456,491.3635 424.89951,303.55784 288.24573,136.30943 10.250965,8.6364935 z"
         style="fill:#fefefa;fill-opacity:1;stroke:#000000;stroke-width:1.13013017px;stroke-linecap:butt;stroke-linejoin:miter;stroke-opacity:0;filter:url(#filter3159-2)" />
      <rect
         y="-2.8571432"
         x="-25.714285"
         height="517.14288"
         width="694.28571"
         id="rect3766"
         style="fill:#1ff000;fill-opacity:0;stroke:#000000;stroke-width:5;stroke-miterlimit:4;stroke-opacity:0;stroke-dasharray:none" />
    </g>
  </g>
</svg>
